<mxfile host="app.diagrams.net" agent="Mozilla/5.0 (Windows NT 10.0; Win64; x64) AppleWebKit/537.36 (KHTML, like Gecko) Chrome/134.0.0.0 Safari/537.36" version="26.1.3">
  <diagram id="Ew3s-_vgQPPwII5FfubE" name="Page-1">
    <mxGraphModel dx="611" dy="348" grid="1" gridSize="10" guides="1" tooltips="1" connect="1" arrows="1" fold="1" page="1" pageScale="1" pageWidth="1169" pageHeight="826" background="#ffffff" math="0" shadow="0">
      <root>
        <mxCell id="0" />
        <mxCell id="1" parent="0" />
        <mxCell id="_733RBuRszvtqdTx51AU-23" style="edgeStyle=orthogonalEdgeStyle;rounded=0;orthogonalLoop=1;jettySize=auto;html=1;exitX=0;exitY=0.5;exitDx=0;exitDy=0;entryX=0.5;entryY=0;entryDx=0;entryDy=0;" parent="1" edge="1">
          <mxGeometry relative="1" as="geometry">
            <Array as="points">
              <mxPoint x="-350" y="760" />
              <mxPoint x="-350" y="1800" />
              <mxPoint x="250" y="1800" />
            </Array>
            <mxPoint x="19.999999999999545" y="760" as="sourcePoint" />
          </mxGeometry>
        </mxCell>
        <mxCell id="zgKUFMcFZotpdD9ldKJI-222" style="edgeStyle=orthogonalEdgeStyle;rounded=0;orthogonalLoop=1;jettySize=auto;html=1;exitX=0.75;exitY=1;exitDx=0;exitDy=0;entryX=0.5;entryY=0;entryDx=0;entryDy=0;" parent="1" source="zgKUFMcFZotpdD9ldKJI-118" target="zgKUFMcFZotpdD9ldKJI-150" edge="1">
          <mxGeometry relative="1" as="geometry" />
        </mxCell>
        <mxCell id="zgKUFMcFZotpdD9ldKJI-223" style="edgeStyle=orthogonalEdgeStyle;rounded=0;orthogonalLoop=1;jettySize=auto;html=1;exitX=0.25;exitY=1;exitDx=0;exitDy=0;entryX=0.5;entryY=0;entryDx=0;entryDy=0;" parent="1" source="zgKUFMcFZotpdD9ldKJI-118" target="zgKUFMcFZotpdD9ldKJI-124" edge="1">
          <mxGeometry relative="1" as="geometry" />
        </mxCell>
        <mxCell id="zgKUFMcFZotpdD9ldKJI-226" style="edgeStyle=orthogonalEdgeStyle;rounded=0;orthogonalLoop=1;jettySize=auto;html=1;exitX=0.5;exitY=1;exitDx=0;exitDy=0;entryX=0.5;entryY=0;entryDx=0;entryDy=0;" parent="1" source="zgKUFMcFZotpdD9ldKJI-118" target="zgKUFMcFZotpdD9ldKJI-217" edge="1">
          <mxGeometry relative="1" as="geometry" />
        </mxCell>
        <mxCell id="zgKUFMcFZotpdD9ldKJI-118" value="Открыть сайт" style="rounded=0;whiteSpace=wrap;html=1;" parent="1" vertex="1">
          <mxGeometry x="230" y="90" width="120" height="60" as="geometry" />
        </mxCell>
        <mxCell id="zgKUFMcFZotpdD9ldKJI-119" value="" style="ellipse;shape=doubleEllipse;whiteSpace=wrap;html=1;aspect=fixed;fillColor=#000000;" parent="1" vertex="1">
          <mxGeometry x="280" width="20" height="20" as="geometry" />
        </mxCell>
        <mxCell id="zgKUFMcFZotpdD9ldKJI-120" value="" style="endArrow=classic;html=1;rounded=0;" parent="1" source="zgKUFMcFZotpdD9ldKJI-119" target="zgKUFMcFZotpdD9ldKJI-118" edge="1">
          <mxGeometry width="50" height="50" relative="1" as="geometry">
            <mxPoint x="620" y="260" as="sourcePoint" />
            <mxPoint x="670" y="210" as="targetPoint" />
          </mxGeometry>
        </mxCell>
        <mxCell id="zgKUFMcFZotpdD9ldKJI-224" style="edgeStyle=orthogonalEdgeStyle;rounded=0;orthogonalLoop=1;jettySize=auto;html=1;exitX=0.5;exitY=1;exitDx=0;exitDy=0;entryX=0.25;entryY=0;entryDx=0;entryDy=0;" parent="1" source="zgKUFMcFZotpdD9ldKJI-124" target="zgKUFMcFZotpdD9ldKJI-217" edge="1">
          <mxGeometry relative="1" as="geometry">
            <Array as="points">
              <mxPoint x="170" y="355" />
              <mxPoint x="260" y="355" />
            </Array>
          </mxGeometry>
        </mxCell>
        <mxCell id="zgKUFMcFZotpdD9ldKJI-124" value="Регистрация" style="rounded=0;whiteSpace=wrap;html=1;" parent="1" vertex="1">
          <mxGeometry x="110" y="260" width="120" height="60" as="geometry" />
        </mxCell>
        <mxCell id="zgKUFMcFZotpdD9ldKJI-143" value="" style="ellipse;html=1;shape=endState;fillColor=#000000;strokeColor=#000000;" parent="1" vertex="1">
          <mxGeometry x="275" y="490" width="30" height="30" as="geometry" />
        </mxCell>
        <mxCell id="zgKUFMcFZotpdD9ldKJI-225" style="edgeStyle=orthogonalEdgeStyle;rounded=0;orthogonalLoop=1;jettySize=auto;html=1;exitX=0.5;exitY=1;exitDx=0;exitDy=0;entryX=0.75;entryY=0;entryDx=0;entryDy=0;" parent="1" source="zgKUFMcFZotpdD9ldKJI-150" target="zgKUFMcFZotpdD9ldKJI-217" edge="1">
          <mxGeometry relative="1" as="geometry" />
        </mxCell>
        <mxCell id="zgKUFMcFZotpdD9ldKJI-150" value="Просмотр страниц для неавторизованных пользователей" style="rounded=0;whiteSpace=wrap;html=1;" parent="1" vertex="1">
          <mxGeometry x="350" y="260" width="120" height="60" as="geometry" />
        </mxCell>
        <mxCell id="zgKUFMcFZotpdD9ldKJI-216" style="edgeStyle=orthogonalEdgeStyle;rounded=0;orthogonalLoop=1;jettySize=auto;html=1;exitX=0.5;exitY=1;exitDx=0;exitDy=0;entryX=0.5;entryY=0;entryDx=0;entryDy=0;" parent="1" source="zgKUFMcFZotpdD9ldKJI-217" target="zgKUFMcFZotpdD9ldKJI-143" edge="1">
          <mxGeometry relative="1" as="geometry" />
        </mxCell>
        <mxCell id="zgKUFMcFZotpdD9ldKJI-217" value="Покинуть сайт" style="rounded=0;whiteSpace=wrap;html=1;" parent="1" vertex="1">
          <mxGeometry x="230" y="390" width="120" height="60" as="geometry" />
        </mxCell>
      </root>
    </mxGraphModel>
  </diagram>
</mxfile>
